<?xml version="1.0" standalone="no"?>
<svg data-v-10ed7072="" viewBox="0 0 320 320" id="i_212" class="container" xmlns="http://www.w3.org/2000/svg"><rect data-v-10ed7072="" width="100" height="100" x="000" y="000" fill="#ffffff" stroke="#000000" stroke-width="1"></rect><rect data-v-10ed7072="" width="100" height="100" x="110" y="000" fill="#ffffff" stroke="#000000" stroke-width="1"></rect><rect data-v-10ed7072="" width="100" height="100" x="220" y="000" fill="#ffffff" stroke="#000000" stroke-width="1"></rect><rect data-v-10ed7072="" width="100" height="100" x="000" y="110" fill="#ffffff" stroke="#000000" stroke-width="1"></rect><rect data-v-10ed7072="" width="100" height="100" x="110" y="110" fill="#ffffff" stroke="#000000" stroke-width="1"></rect><rect data-v-10ed7072="" width="100" height="100" x="220" y="110" fill="#ffffff" stroke="#000000" stroke-width="1"></rect><rect data-v-10ed7072="" width="100" height="100" x="000" y="220" fill="#ffffff" stroke="#000000" stroke-width="1"></rect><rect data-v-10ed7072="" width="100" height="100" x="110" y="220" fill="#ffffff" stroke="#000000" stroke-width="1"></rect><rect data-v-10ed7072="" width="100" height="100" x="220" y="220" fill="#ffffff" stroke="#000000" stroke-width="1"></rect><svg data-v-10ed7072="" width="100" height="100" x="000" y="000" id="i_212_mat1" xmlns="http://www.w3.org/2000/svg" version="1.1" xmlns:xlink="http://www.w3.org/1999/xlink" xmlns:svgjs="http://svgjs.com/svgjs"><polygon id="SvgjsPolygon57729" points="0,0 25,0 0,25" fill="#000000" stroke="#000000" stroke-width="1"></polygon><polygon id="SvgjsPolygon57730" points="12.5,50 50,12.5" stroke="#000000" stroke-width="1"></polygon><polygon id="SvgjsPolygon57731" points="12.5,50 50,87.5" stroke="#000000" stroke-width="1"></polygon><polygon id="SvgjsPolygon57732" points="37.5,0 62.5,0 62.5,12.5 37.5,12.5" stroke="#000000" stroke-width="1"></polygon><polygon id="SvgjsPolygon57733" points="0,37.5 0,62.5 12.5,62.5 12.5,37.5" stroke="#000000" stroke-width="1"></polygon><polygon id="SvgjsPolygon57734" points="37.5,87.5 62.5,87.5 62.5,100 37.5,100" stroke="#000000" stroke-width="1"></polygon><defs id="SvgjsDefs57728"></defs><polygon id="SvgjsPolygon57735" points="87.5,37.5 87.5,62.5 100,62.5 100,37.5" stroke="#000000" stroke-width="1"></polygon></svg><svg data-v-10ed7072="" width="100" height="100" x="110" y="000" id="i_212_mat2" xmlns="http://www.w3.org/2000/svg" version="1.1" xmlns:xlink="http://www.w3.org/1999/xlink" xmlns:svgjs="http://svgjs.com/svgjs"><polygon id="SvgjsPolygon57737" points="75,0 100,0 100,25" fill="#000000" stroke="#000000" stroke-width="1"></polygon><polygon id="SvgjsPolygon57738" points="12.5,50 50,87.5" stroke="#000000" stroke-width="1"></polygon><polygon id="SvgjsPolygon57739" points="50,87.5 87.5,50" stroke="#000000" stroke-width="1"></polygon><polygon id="SvgjsPolygon57740" points="37.5,0 62.5,0 62.5,12.5 37.5,12.5" stroke="#000000" stroke-width="1"></polygon><defs id="SvgjsDefs57736"></defs><polygon id="SvgjsPolygon57741" points="37.5,87.5 62.5,87.5 62.5,100 37.5,100" stroke="#000000" stroke-width="1"></polygon></svg><svg data-v-10ed7072="" width="100" height="100" x="220" y="000" id="i_212_mat3" xmlns="http://www.w3.org/2000/svg" version="1.1" xmlns:xlink="http://www.w3.org/1999/xlink" xmlns:svgjs="http://svgjs.com/svgjs"><polygon id="SvgjsPolygon57743" points="0,0 25,0 0,25" fill="#000000" stroke="#000000" stroke-width="1"></polygon><polygon id="SvgjsPolygon57744" points="75,0 100,0 100,25" fill="#000000" stroke="#000000" stroke-width="1"></polygon><polygon id="SvgjsPolygon57745" points="12.5,50 50,12.5" stroke="#000000" stroke-width="1"></polygon><polygon id="SvgjsPolygon57746" points="50,87.5 87.5,50" stroke="#000000" stroke-width="1"></polygon><polygon id="SvgjsPolygon57747" points="0,37.5 0,62.5 12.5,62.5 12.5,37.5" stroke="#000000" stroke-width="1"></polygon><defs id="SvgjsDefs57742"></defs><polygon id="SvgjsPolygon57748" points="87.5,37.5 87.5,62.5 100,62.5 100,37.5" stroke="#000000" stroke-width="1"></polygon></svg><svg data-v-10ed7072="" width="100" height="100" x="000" y="110" id="i_212_mat4" xmlns="http://www.w3.org/2000/svg" version="1.1" xmlns:xlink="http://www.w3.org/1999/xlink" xmlns:svgjs="http://svgjs.com/svgjs"><polygon id="SvgjsPolygon57750" points="25,100 0,100 0,75" fill="#000000" stroke="#000000" stroke-width="1"></polygon><polygon id="SvgjsPolygon57751" points="50,87.5 87.5,50" stroke="#000000" stroke-width="1"></polygon><polygon id="SvgjsPolygon57752" points="50,12.5 87.5,50" stroke="#000000" stroke-width="1"></polygon><polygon id="SvgjsPolygon57753" points="37.5,0 62.5,0 62.5,12.5 37.5,12.5" stroke="#000000" stroke-width="1"></polygon><polygon id="SvgjsPolygon57754" points="0,37.5 0,62.5 12.5,62.5 12.5,37.5" stroke="#000000" stroke-width="1"></polygon><defs id="SvgjsDefs57749"></defs><polygon id="SvgjsPolygon57755" points="37.5,87.5 62.5,87.5 62.5,100 37.5,100" stroke="#000000" stroke-width="1"></polygon></svg><svg data-v-10ed7072="" width="100" height="100" x="110" y="110" id="i_212_mat5" xmlns="http://www.w3.org/2000/svg" version="1.1" xmlns:xlink="http://www.w3.org/1999/xlink" xmlns:svgjs="http://svgjs.com/svgjs"><polygon id="SvgjsPolygon57757" points="100,75 100,100 75,100" fill="#000000" stroke="#000000" stroke-width="1"></polygon><polygon id="SvgjsPolygon57758" points="12.5,50 50,87.5" stroke="#000000" stroke-width="1"></polygon><polygon id="SvgjsPolygon57759" points="50,87.5 87.5,50" stroke="#000000" stroke-width="1"></polygon><defs id="SvgjsDefs57756"></defs><polygon id="SvgjsPolygon57760" points="0,37.5 0,62.5 12.5,62.5 12.5,37.5" stroke="#000000" stroke-width="1"></polygon></svg><svg data-v-10ed7072="" width="100" height="100" x="220" y="110" id="i_212_mat6" xmlns="http://www.w3.org/2000/svg" version="1.1" xmlns:xlink="http://www.w3.org/1999/xlink" xmlns:svgjs="http://svgjs.com/svgjs"><polygon id="SvgjsPolygon57762" points="25,100 0,100 0,75" fill="#000000" stroke="#000000" stroke-width="1"></polygon><polygon id="SvgjsPolygon57763" points="100,75 100,100 75,100" fill="#000000" stroke="#000000" stroke-width="1"></polygon><polygon id="SvgjsPolygon57764" points="12.5,50 50,87.5" stroke="#000000" stroke-width="1"></polygon><polygon id="SvgjsPolygon57765" points="50,12.5 87.5,50" stroke="#000000" stroke-width="1"></polygon><polygon id="SvgjsPolygon57766" points="37.5,0 62.5,0 62.5,12.5 37.5,12.5" stroke="#000000" stroke-width="1"></polygon><defs id="SvgjsDefs57761"></defs><polygon id="SvgjsPolygon57767" points="37.5,87.5 62.5,87.5 62.5,100 37.5,100" stroke="#000000" stroke-width="1"></polygon></svg><svg data-v-10ed7072="" width="100" height="100" x="000" y="220" id="i_212_mat7" xmlns="http://www.w3.org/2000/svg" version="1.1" xmlns:xlink="http://www.w3.org/1999/xlink" xmlns:svgjs="http://svgjs.com/svgjs"><polygon id="SvgjsPolygon57769" points="0,0 25,0 0,25" fill="#000000" stroke="#000000" stroke-width="1"></polygon><polygon id="SvgjsPolygon57770" points="100,75 100,100 75,100" fill="#000000" stroke="#000000" stroke-width="1"></polygon><polygon id="SvgjsPolygon57771" points="12.5,50 50,12.5" stroke="#000000" stroke-width="1"></polygon><polygon id="SvgjsPolygon57772" points="12.5,50 50,87.5" stroke="#000000" stroke-width="1"></polygon><polygon id="SvgjsPolygon57773" points="50,87.5 87.5,50" stroke="#000000" stroke-width="1"></polygon><polygon id="SvgjsPolygon57774" points="37.5,0 62.5,0 62.5,12.5 37.5,12.5" stroke="#000000" stroke-width="1"></polygon><polygon id="SvgjsPolygon57775" points="37.5,87.5 62.5,87.5 62.5,100 37.5,100" stroke="#000000" stroke-width="1"></polygon><defs id="SvgjsDefs57768"></defs><polygon id="SvgjsPolygon57776" points="87.5,37.5 87.5,62.5 100,62.5 100,37.5" stroke="#000000" stroke-width="1"></polygon></svg><svg data-v-10ed7072="" width="100" height="100" x="110" y="220" id="i_212_mat8" xmlns="http://www.w3.org/2000/svg" version="1.1" xmlns:xlink="http://www.w3.org/1999/xlink" xmlns:svgjs="http://svgjs.com/svgjs"><polygon id="SvgjsPolygon57778" points="25,100 0,100 0,75" fill="#000000" stroke="#000000" stroke-width="1"></polygon><polygon id="SvgjsPolygon57779" points="75,0 100,0 100,25" fill="#000000" stroke="#000000" stroke-width="1"></polygon><polygon id="SvgjsPolygon57780" points="12.5,50 50,12.5" stroke="#000000" stroke-width="1"></polygon><polygon id="SvgjsPolygon57781" points="50,87.5 87.5,50" stroke="#000000" stroke-width="1"></polygon><polygon id="SvgjsPolygon57782" points="50,12.5 87.5,50" stroke="#000000" stroke-width="1"></polygon><defs id="SvgjsDefs57777"></defs><polygon id="SvgjsPolygon57783" points="37.5,0 62.5,0 62.5,12.5 37.5,12.5" stroke="#000000" stroke-width="1"></polygon></svg></svg>