<?xml version="1.0" standalone="no"?>
<svg data-v-10ed7072="" viewBox="0 0 320 320" id="i_216" class="container" xmlns="http://www.w3.org/2000/svg"><rect data-v-10ed7072="" width="100" height="100" x="000" y="000" fill="#ffffff" stroke="#000000" stroke-width="1"></rect><rect data-v-10ed7072="" width="100" height="100" x="110" y="000" fill="#ffffff" stroke="#000000" stroke-width="1"></rect><rect data-v-10ed7072="" width="100" height="100" x="220" y="000" fill="#ffffff" stroke="#000000" stroke-width="1"></rect><rect data-v-10ed7072="" width="100" height="100" x="000" y="110" fill="#ffffff" stroke="#000000" stroke-width="1"></rect><rect data-v-10ed7072="" width="100" height="100" x="110" y="110" fill="#ffffff" stroke="#000000" stroke-width="1"></rect><rect data-v-10ed7072="" width="100" height="100" x="220" y="110" fill="#ffffff" stroke="#000000" stroke-width="1"></rect><rect data-v-10ed7072="" width="100" height="100" x="000" y="220" fill="#ffffff" stroke="#000000" stroke-width="1"></rect><rect data-v-10ed7072="" width="100" height="100" x="110" y="220" fill="#ffffff" stroke="#000000" stroke-width="1"></rect><rect data-v-10ed7072="" width="100" height="100" x="220" y="220" fill="#ffffff" stroke="#000000" stroke-width="1"></rect><svg data-v-10ed7072="" width="100" height="100" x="000" y="000" id="i_216_mat1" xmlns="http://www.w3.org/2000/svg" version="1.1" xmlns:xlink="http://www.w3.org/1999/xlink" xmlns:svgjs="http://svgjs.com/svgjs"><polygon id="SvgjsPolygon67104" points="12.5,50 50,12.5" stroke="#000000" stroke-width="1"></polygon><polygon id="SvgjsPolygon67105" points="12.5,50 50,87.5" stroke="#000000" stroke-width="1"></polygon><polygon id="SvgjsPolygon67106" points="37.5,0 62.5,0 62.5,12.5 37.5,12.5" stroke="#000000" stroke-width="1"></polygon><polygon id="SvgjsPolygon67107" points="0,37.5 0,62.5 12.5,62.5 12.5,37.5" stroke="#000000" stroke-width="1"></polygon><polygon id="SvgjsPolygon67108" points="37.5,87.5 62.5,87.5 62.5,100 37.5,100" stroke="#000000" stroke-width="1"></polygon><polygon id="SvgjsPolygon67109" points="50,12.5 37.5,25 62.5,25" stroke="#000000" stroke-width="1"></polygon><defs id="SvgjsDefs67103"></defs><polygon id="SvgjsPolygon67110" points="87.5,50 75,37.5 75,62.5" stroke="#000000" stroke-width="1"></polygon></svg><svg data-v-10ed7072="" width="100" height="100" x="110" y="000" id="i_216_mat2" xmlns="http://www.w3.org/2000/svg" version="1.1" xmlns:xlink="http://www.w3.org/1999/xlink" xmlns:svgjs="http://svgjs.com/svgjs"><polygon id="SvgjsPolygon67112" points="12.5,50 50,87.5" stroke="#000000" stroke-width="1"></polygon><polygon id="SvgjsPolygon67113" points="50,87.5 87.5,50" stroke="#000000" stroke-width="1"></polygon><polygon id="SvgjsPolygon67114" points="37.5,87.5 62.5,87.5 62.5,100 37.5,100" stroke="#000000" stroke-width="1"></polygon><polygon id="SvgjsPolygon67115" points="50,12.5 37.5,25 62.5,25" stroke="#000000" stroke-width="1"></polygon><defs id="SvgjsDefs67111"></defs><polygon id="SvgjsPolygon67116" points="12.5,50 25,37.5 25,62.5" stroke="#000000" stroke-width="1"></polygon></svg><svg data-v-10ed7072="" width="100" height="100" x="220" y="000" id="i_216_mat3" xmlns="http://www.w3.org/2000/svg" version="1.1" xmlns:xlink="http://www.w3.org/1999/xlink" xmlns:svgjs="http://svgjs.com/svgjs"><polygon id="SvgjsPolygon67118" points="12.5,50 50,12.5" stroke="#000000" stroke-width="1"></polygon><polygon id="SvgjsPolygon67119" points="12.5,50 50,87.5" stroke="#000000" stroke-width="1"></polygon><polygon id="SvgjsPolygon67120" points="50,87.5 87.5,50" stroke="#000000" stroke-width="1"></polygon><polygon id="SvgjsPolygon67121" points="37.5,0 62.5,0 62.5,12.5 37.5,12.5" stroke="#000000" stroke-width="1"></polygon><polygon id="SvgjsPolygon67122" points="0,37.5 0,62.5 12.5,62.5 12.5,37.5" stroke="#000000" stroke-width="1"></polygon><defs id="SvgjsDefs67117"></defs><polygon id="SvgjsPolygon67123" points="50,12.5 37.5,25 62.5,25" stroke="#000000" stroke-width="1"></polygon></svg><svg data-v-10ed7072="" width="100" height="100" x="000" y="110" id="i_216_mat4" xmlns="http://www.w3.org/2000/svg" version="1.1" xmlns:xlink="http://www.w3.org/1999/xlink" xmlns:svgjs="http://svgjs.com/svgjs"><polygon id="SvgjsPolygon67125" points="12.5,50 50,87.5" stroke="#000000" stroke-width="1"></polygon><polygon id="SvgjsPolygon67126" points="50,87.5 87.5,50" stroke="#000000" stroke-width="1"></polygon><polygon id="SvgjsPolygon67127" points="37.5,87.5 62.5,87.5 62.5,100 37.5,100" stroke="#000000" stroke-width="1"></polygon><polygon id="SvgjsPolygon67128" points="87.5,37.5 87.5,62.5 100,62.5 100,37.5" stroke="#000000" stroke-width="1"></polygon><polygon id="SvgjsPolygon67129" points="12.5,50 25,37.5 25,62.5" stroke="#000000" stroke-width="1"></polygon><defs id="SvgjsDefs67124"></defs><polygon id="SvgjsPolygon67130" points="50,87.5 37.5,75 62.5,75" stroke="#000000" stroke-width="1"></polygon></svg><svg data-v-10ed7072="" width="100" height="100" x="110" y="110" id="i_216_mat5" xmlns="http://www.w3.org/2000/svg" version="1.1" xmlns:xlink="http://www.w3.org/1999/xlink" xmlns:svgjs="http://svgjs.com/svgjs"><polygon id="SvgjsPolygon67132" points="50,12.5 87.5,50" stroke="#000000" stroke-width="1"></polygon><polygon id="SvgjsPolygon67133" points="0,37.5 0,62.5 12.5,62.5 12.5,37.5" stroke="#000000" stroke-width="1"></polygon><polygon id="SvgjsPolygon67134" points="37.5,87.5 62.5,87.5 62.5,100 37.5,100" stroke="#000000" stroke-width="1"></polygon><polygon id="SvgjsPolygon67135" points="50,12.5 37.5,25 62.5,25" stroke="#000000" stroke-width="1"></polygon><polygon id="SvgjsPolygon67136" points="12.5,50 25,37.5 25,62.5" stroke="#000000" stroke-width="1"></polygon><defs id="SvgjsDefs67131"></defs><polygon id="SvgjsPolygon67137" points="50,87.5 37.5,75 62.5,75" stroke="#000000" stroke-width="1"></polygon></svg><svg data-v-10ed7072="" width="100" height="100" x="220" y="110" id="i_216_mat6" xmlns="http://www.w3.org/2000/svg" version="1.1" xmlns:xlink="http://www.w3.org/1999/xlink" xmlns:svgjs="http://svgjs.com/svgjs"><polygon id="SvgjsPolygon67139" points="12.5,50 50,87.5" stroke="#000000" stroke-width="1"></polygon><polygon id="SvgjsPolygon67140" points="50,87.5 87.5,50" stroke="#000000" stroke-width="1"></polygon><polygon id="SvgjsPolygon67141" points="50,12.5 87.5,50" stroke="#000000" stroke-width="1"></polygon><polygon id="SvgjsPolygon67142" points="0,37.5 0,62.5 12.5,62.5 12.5,37.5" stroke="#000000" stroke-width="1"></polygon><polygon id="SvgjsPolygon67143" points="87.5,37.5 87.5,62.5 100,62.5 100,37.5" stroke="#000000" stroke-width="1"></polygon><polygon id="SvgjsPolygon67144" points="12.5,50 25,37.5 25,62.5" stroke="#000000" stroke-width="1"></polygon><defs id="SvgjsDefs67138"></defs><polygon id="SvgjsPolygon67145" points="50,87.5 37.5,75 62.5,75" stroke="#000000" stroke-width="1"></polygon></svg><svg data-v-10ed7072="" width="100" height="100" x="000" y="220" id="i_216_mat7" xmlns="http://www.w3.org/2000/svg" version="1.1" xmlns:xlink="http://www.w3.org/1999/xlink" xmlns:svgjs="http://svgjs.com/svgjs"><polygon id="SvgjsPolygon67147" points="12.5,50 50,12.5" stroke="#000000" stroke-width="1"></polygon><polygon id="SvgjsPolygon67148" points="50,87.5 87.5,50" stroke="#000000" stroke-width="1"></polygon><polygon id="SvgjsPolygon67149" points="0,37.5 0,62.5 12.5,62.5 12.5,37.5" stroke="#000000" stroke-width="1"></polygon><polygon id="SvgjsPolygon67150" points="87.5,37.5 87.5,62.5 100,62.5 100,37.5" stroke="#000000" stroke-width="1"></polygon><polygon id="SvgjsPolygon67151" points="50,87.5 37.5,75 62.5,75" stroke="#000000" stroke-width="1"></polygon><defs id="SvgjsDefs67146"></defs><polygon id="SvgjsPolygon67152" points="87.5,50 75,37.5 75,62.5" stroke="#000000" stroke-width="1"></polygon></svg><svg data-v-10ed7072="" width="100" height="100" x="110" y="220" id="i_216_mat8" xmlns="http://www.w3.org/2000/svg" version="1.1" xmlns:xlink="http://www.w3.org/1999/xlink" xmlns:svgjs="http://svgjs.com/svgjs"><polygon id="SvgjsPolygon67154" points="12.5,50 50,87.5" stroke="#000000" stroke-width="1"></polygon><polygon id="SvgjsPolygon67155" points="50,12.5 87.5,50" stroke="#000000" stroke-width="1"></polygon><polygon id="SvgjsPolygon67156" points="0,37.5 0,62.5 12.5,62.5 12.5,37.5" stroke="#000000" stroke-width="1"></polygon><polygon id="SvgjsPolygon67157" points="37.5,87.5 62.5,87.5 62.5,100 37.5,100" stroke="#000000" stroke-width="1"></polygon><defs id="SvgjsDefs67153"></defs><polygon id="SvgjsPolygon67158" points="87.5,50 75,37.5 75,62.5" stroke="#000000" stroke-width="1"></polygon></svg></svg>