<?xml version="1.0" standalone="no"?>
<svg data-v-10ed7072="" viewBox="0 0 320 320" id="i_369" class="container" xmlns="http://www.w3.org/2000/svg"><rect data-v-10ed7072="" width="100" height="100" x="000" y="000" fill="#ffffff" stroke="#000000" stroke-width="1"></rect><rect data-v-10ed7072="" width="100" height="100" x="110" y="000" fill="#ffffff" stroke="#000000" stroke-width="1"></rect><rect data-v-10ed7072="" width="100" height="100" x="220" y="000" fill="#ffffff" stroke="#000000" stroke-width="1"></rect><rect data-v-10ed7072="" width="100" height="100" x="000" y="110" fill="#ffffff" stroke="#000000" stroke-width="1"></rect><rect data-v-10ed7072="" width="100" height="100" x="110" y="110" fill="#ffffff" stroke="#000000" stroke-width="1"></rect><rect data-v-10ed7072="" width="100" height="100" x="220" y="110" fill="#ffffff" stroke="#000000" stroke-width="1"></rect><rect data-v-10ed7072="" width="100" height="100" x="000" y="220" fill="#ffffff" stroke="#000000" stroke-width="1"></rect><rect data-v-10ed7072="" width="100" height="100" x="110" y="220" fill="#ffffff" stroke="#000000" stroke-width="1"></rect><rect data-v-10ed7072="" width="100" height="100" x="220" y="220" fill="#ffffff" stroke="#000000" stroke-width="1"></rect><svg data-v-10ed7072="" width="100" height="100" x="000" y="000" id="i_369_mat1" xmlns="http://www.w3.org/2000/svg" version="1.1" xmlns:xlink="http://www.w3.org/1999/xlink" xmlns:svgjs="http://svgjs.com/svgjs"><polygon id="SvgjsPolygon12867" points="0,0 25,0 0,25" fill="#000000" stroke="#000000" stroke-width="1"></polygon><polygon id="SvgjsPolygon12868" points="25,100 0,100 0,75" fill="#000000" stroke="#000000" stroke-width="1"></polygon><polygon id="SvgjsPolygon12869" points="12.5,50 50,12.5" stroke="#000000" stroke-width="1"></polygon><polygon id="SvgjsPolygon12870" points="12.5,50 50,87.5" stroke="#000000" stroke-width="1"></polygon><polygon id="SvgjsPolygon12871" points="50,87.5 87.5,50" stroke="#000000" stroke-width="1"></polygon><polygon id="SvgjsPolygon12872" points="37.5,0 62.5,0 62.5,12.5 37.5,12.5" stroke="#000000" stroke-width="1"></polygon><polygon id="SvgjsPolygon12873" points="0,37.5 0,62.5 12.5,62.5 12.5,37.5" stroke="#000000" stroke-width="1"></polygon><defs id="SvgjsDefs12866"></defs><polygon id="SvgjsPolygon12874" points="50,87.5 37.5,75 62.5,75" stroke="#000000" stroke-width="1"></polygon></svg><svg data-v-10ed7072="" width="100" height="100" x="110" y="000" id="i_369_mat2" xmlns="http://www.w3.org/2000/svg" version="1.1" xmlns:xlink="http://www.w3.org/1999/xlink" xmlns:svgjs="http://svgjs.com/svgjs"><polygon id="SvgjsPolygon12876" points="25,100 0,100 0,75" fill="#000000" stroke="#000000" stroke-width="1"></polygon><polygon id="SvgjsPolygon12877" points="12.5,50 50,12.5" stroke="#000000" stroke-width="1"></polygon><polygon id="SvgjsPolygon12878" points="50,87.5 87.5,50" stroke="#000000" stroke-width="1"></polygon><polygon id="SvgjsPolygon12879" points="0,37.5 0,62.5 12.5,62.5 12.5,37.5" stroke="#000000" stroke-width="1"></polygon><polygon id="SvgjsPolygon12880" points="37.5,87.5 62.5,87.5 62.5,100 37.5,100" stroke="#000000" stroke-width="1"></polygon><defs id="SvgjsDefs12875"></defs><polygon id="SvgjsPolygon12881" points="87.5,50 75,37.5 75,62.5" stroke="#000000" stroke-width="1"></polygon></svg><svg data-v-10ed7072="" width="100" height="100" x="220" y="000" id="i_369_mat3" xmlns="http://www.w3.org/2000/svg" version="1.1" xmlns:xlink="http://www.w3.org/1999/xlink" xmlns:svgjs="http://svgjs.com/svgjs"><polygon id="SvgjsPolygon12883" points="0,0 25,0 0,25" fill="#000000" stroke="#000000" stroke-width="1"></polygon><polygon id="SvgjsPolygon12884" points="12.5,50 50,12.5" stroke="#000000" stroke-width="1"></polygon><polygon id="SvgjsPolygon12885" points="50,87.5 87.5,50" stroke="#000000" stroke-width="1"></polygon><polygon id="SvgjsPolygon12886" points="37.5,0 62.5,0 62.5,12.5 37.5,12.5" stroke="#000000" stroke-width="1"></polygon><polygon id="SvgjsPolygon12887" points="37.5,87.5 62.5,87.5 62.5,100 37.5,100" stroke="#000000" stroke-width="1"></polygon><defs id="SvgjsDefs12882"></defs><polygon id="SvgjsPolygon12888" points="50,12.5 37.5,25 62.5,25" stroke="#000000" stroke-width="1"></polygon></svg><svg data-v-10ed7072="" width="100" height="100" x="000" y="110" id="i_369_mat4" xmlns="http://www.w3.org/2000/svg" version="1.1" xmlns:xlink="http://www.w3.org/1999/xlink" xmlns:svgjs="http://svgjs.com/svgjs"><polygon id="SvgjsPolygon12890" points="0,0 25,0 0,25" fill="#000000" stroke="#000000" stroke-width="1"></polygon><polygon id="SvgjsPolygon12891" points="25,100 0,100 0,75" fill="#000000" stroke="#000000" stroke-width="1"></polygon><polygon id="SvgjsPolygon12892" points="100,75 100,100 75,100" fill="#000000" stroke="#000000" stroke-width="1"></polygon><polygon id="SvgjsPolygon12893" points="12.5,50 50,87.5" stroke="#000000" stroke-width="1"></polygon><polygon id="SvgjsPolygon12894" points="50,87.5 87.5,50" stroke="#000000" stroke-width="1"></polygon><polygon id="SvgjsPolygon12895" points="37.5,0 62.5,0 62.5,12.5 37.5,12.5" stroke="#000000" stroke-width="1"></polygon><polygon id="SvgjsPolygon12896" points="0,37.5 0,62.5 12.5,62.5 12.5,37.5" stroke="#000000" stroke-width="1"></polygon><polygon id="SvgjsPolygon12897" points="50,12.5 37.5,25 62.5,25" stroke="#000000" stroke-width="1"></polygon><defs id="SvgjsDefs12889"></defs><polygon id="SvgjsPolygon12898" points="12.5,50 25,37.5 25,62.5" stroke="#000000" stroke-width="1"></polygon></svg><svg data-v-10ed7072="" width="100" height="100" x="110" y="110" id="i_369_mat5" xmlns="http://www.w3.org/2000/svg" version="1.1" xmlns:xlink="http://www.w3.org/1999/xlink" xmlns:svgjs="http://svgjs.com/svgjs"><polygon id="SvgjsPolygon12900" points="25,100 0,100 0,75" fill="#000000" stroke="#000000" stroke-width="1"></polygon><polygon id="SvgjsPolygon12901" points="12.5,50 50,12.5" stroke="#000000" stroke-width="1"></polygon><polygon id="SvgjsPolygon12902" points="50,87.5 87.5,50" stroke="#000000" stroke-width="1"></polygon><polygon id="SvgjsPolygon12903" points="50,12.5 87.5,50" stroke="#000000" stroke-width="1"></polygon><polygon id="SvgjsPolygon12904" points="37.5,0 62.5,0 62.5,12.5 37.5,12.5" stroke="#000000" stroke-width="1"></polygon><polygon id="SvgjsPolygon12905" points="12.5,50 25,37.5 25,62.5" stroke="#000000" stroke-width="1"></polygon><defs id="SvgjsDefs12899"></defs><polygon id="SvgjsPolygon12906" points="50,87.5 37.5,75 62.5,75" stroke="#000000" stroke-width="1"></polygon></svg><svg data-v-10ed7072="" width="100" height="100" x="220" y="110" id="i_369_mat6" xmlns="http://www.w3.org/2000/svg" version="1.1" xmlns:xlink="http://www.w3.org/1999/xlink" xmlns:svgjs="http://svgjs.com/svgjs"><polygon id="SvgjsPolygon12908" points="0,0 25,0 0,25" fill="#000000" stroke="#000000" stroke-width="1"></polygon><polygon id="SvgjsPolygon12909" points="100,75 100,100 75,100" fill="#000000" stroke="#000000" stroke-width="1"></polygon><polygon id="SvgjsPolygon12910" points="50,87.5 87.5,50" stroke="#000000" stroke-width="1"></polygon><polygon id="SvgjsPolygon12911" points="0,37.5 0,62.5 12.5,62.5 12.5,37.5" stroke="#000000" stroke-width="1"></polygon><polygon id="SvgjsPolygon12912" points="50,87.5 37.5,75 62.5,75" stroke="#000000" stroke-width="1"></polygon><defs id="SvgjsDefs12907"></defs><polygon id="SvgjsPolygon12913" points="87.5,50 75,37.5 75,62.5" stroke="#000000" stroke-width="1"></polygon></svg><svg data-v-10ed7072="" width="100" height="100" x="000" y="220" id="i_369_mat7" xmlns="http://www.w3.org/2000/svg" version="1.1" xmlns:xlink="http://www.w3.org/1999/xlink" xmlns:svgjs="http://svgjs.com/svgjs"><polygon id="SvgjsPolygon12915" points="0,0 25,0 0,25" fill="#000000" stroke="#000000" stroke-width="1"></polygon><polygon id="SvgjsPolygon12916" points="25,100 0,100 0,75" fill="#000000" stroke="#000000" stroke-width="1"></polygon><polygon id="SvgjsPolygon12917" points="75,0 100,0 100,25" fill="#000000" stroke="#000000" stroke-width="1"></polygon><polygon id="SvgjsPolygon12918" points="12.5,50 50,12.5" stroke="#000000" stroke-width="1"></polygon><polygon id="SvgjsPolygon12919" points="12.5,50 50,87.5" stroke="#000000" stroke-width="1"></polygon><polygon id="SvgjsPolygon12920" points="50,87.5 87.5,50" stroke="#000000" stroke-width="1"></polygon><polygon id="SvgjsPolygon12921" points="50,12.5 87.5,50" stroke="#000000" stroke-width="1"></polygon><polygon id="SvgjsPolygon12922" points="37.5,0 62.5,0 62.5,12.5 37.5,12.5" stroke="#000000" stroke-width="1"></polygon><polygon id="SvgjsPolygon12923" points="37.5,87.5 62.5,87.5 62.5,100 37.5,100" stroke="#000000" stroke-width="1"></polygon><polygon id="SvgjsPolygon12924" points="87.5,37.5 87.5,62.5 100,62.5 100,37.5" stroke="#000000" stroke-width="1"></polygon><polygon id="SvgjsPolygon12925" points="50,12.5 37.5,25 62.5,25" stroke="#000000" stroke-width="1"></polygon><polygon id="SvgjsPolygon12926" points="12.5,50 25,37.5 25,62.5" stroke="#000000" stroke-width="1"></polygon><defs id="SvgjsDefs12914"></defs><polygon id="SvgjsPolygon12927" points="50,87.5 37.5,75 62.5,75" stroke="#000000" stroke-width="1"></polygon></svg><svg data-v-10ed7072="" width="100" height="100" x="110" y="220" id="i_369_mat8" xmlns="http://www.w3.org/2000/svg" version="1.1" xmlns:xlink="http://www.w3.org/1999/xlink" xmlns:svgjs="http://svgjs.com/svgjs"><polygon id="SvgjsPolygon12929" points="0,0 25,0 0,25" fill="#000000" stroke="#000000" stroke-width="1"></polygon><polygon id="SvgjsPolygon12930" points="50,12.5 87.5,50" stroke="#000000" stroke-width="1"></polygon><polygon id="SvgjsPolygon12931" points="37.5,87.5 62.5,87.5 62.5,100 37.5,100" stroke="#000000" stroke-width="1"></polygon><polygon id="SvgjsPolygon12932" points="87.5,37.5 87.5,62.5 100,62.5 100,37.5" stroke="#000000" stroke-width="1"></polygon><polygon id="SvgjsPolygon12933" points="12.5,50 25,37.5 25,62.5" stroke="#000000" stroke-width="1"></polygon><polygon id="SvgjsPolygon12934" points="50,87.5 37.5,75 62.5,75" stroke="#000000" stroke-width="1"></polygon><defs id="SvgjsDefs12928"></defs><polygon id="SvgjsPolygon12935" points="87.5,50 75,37.5 75,62.5" stroke="#000000" stroke-width="1"></polygon></svg></svg>