<?xml version="1.0" standalone="no"?>
<svg data-v-10ed7072="" viewBox="0 0 320 320" id="i_128" class="container" xmlns="http://www.w3.org/2000/svg"><rect data-v-10ed7072="" width="100" height="100" x="000" y="000" fill="#ffffff" stroke="#000000" stroke-width="1"></rect><rect data-v-10ed7072="" width="100" height="100" x="110" y="000" fill="#ffffff" stroke="#000000" stroke-width="1"></rect><rect data-v-10ed7072="" width="100" height="100" x="220" y="000" fill="#ffffff" stroke="#000000" stroke-width="1"></rect><rect data-v-10ed7072="" width="100" height="100" x="000" y="110" fill="#ffffff" stroke="#000000" stroke-width="1"></rect><rect data-v-10ed7072="" width="100" height="100" x="110" y="110" fill="#ffffff" stroke="#000000" stroke-width="1"></rect><rect data-v-10ed7072="" width="100" height="100" x="220" y="110" fill="#ffffff" stroke="#000000" stroke-width="1"></rect><rect data-v-10ed7072="" width="100" height="100" x="000" y="220" fill="#ffffff" stroke="#000000" stroke-width="1"></rect><rect data-v-10ed7072="" width="100" height="100" x="110" y="220" fill="#ffffff" stroke="#000000" stroke-width="1"></rect><rect data-v-10ed7072="" width="100" height="100" x="220" y="220" fill="#ffffff" stroke="#000000" stroke-width="1"></rect><svg data-v-10ed7072="" width="100" height="100" x="000" y="000" id="i_128_mat1" xmlns="http://www.w3.org/2000/svg" version="1.1" xmlns:xlink="http://www.w3.org/1999/xlink" xmlns:svgjs="http://svgjs.com/svgjs"><polygon id="SvgjsPolygon43643" points="0,37.5 0,62.5 12.5,62.5 12.5,37.5" stroke="#000000" stroke-width="1"></polygon><polygon id="SvgjsPolygon43644" points="37.5,87.5 62.5,87.5 62.5,100 37.5,100" stroke="#000000" stroke-width="1"></polygon><polygon id="SvgjsPolygon43645" points="50,12.5 37.5,25 62.5,25" stroke="#000000" stroke-width="1"></polygon><polygon id="SvgjsPolygon43646" points="12.5,50 25,37.5 25,62.5" stroke="#000000" stroke-width="1"></polygon><defs id="SvgjsDefs43642"></defs><polygon id="SvgjsPolygon43647" points="50,87.5 37.5,75 62.5,75" stroke="#000000" stroke-width="1"></polygon></svg><svg data-v-10ed7072="" width="100" height="100" x="110" y="000" id="i_128_mat2" xmlns="http://www.w3.org/2000/svg" version="1.1" xmlns:xlink="http://www.w3.org/1999/xlink" xmlns:svgjs="http://svgjs.com/svgjs"><polygon id="SvgjsPolygon43649" points="37.5,87.5 62.5,87.5 62.5,100 37.5,100" stroke="#000000" stroke-width="1"></polygon><polygon id="SvgjsPolygon43650" points="12.5,50 25,37.5 25,62.5" stroke="#000000" stroke-width="1"></polygon><defs id="SvgjsDefs43648"></defs><polygon id="SvgjsPolygon43651" points="50,87.5 37.5,75 62.5,75" stroke="#000000" stroke-width="1"></polygon></svg><svg data-v-10ed7072="" width="100" height="100" x="220" y="000" id="i_128_mat3" xmlns="http://www.w3.org/2000/svg" version="1.1" xmlns:xlink="http://www.w3.org/1999/xlink" xmlns:svgjs="http://svgjs.com/svgjs"><polygon id="SvgjsPolygon43653" points="0,37.5 0,62.5 12.5,62.5 12.5,37.5" stroke="#000000" stroke-width="1"></polygon><polygon id="SvgjsPolygon43654" points="12.5,50 25,37.5 25,62.5" stroke="#000000" stroke-width="1"></polygon><defs id="SvgjsDefs43652"></defs><polygon id="SvgjsPolygon43655" points="50,87.5 37.5,75 62.5,75" stroke="#000000" stroke-width="1"></polygon></svg><svg data-v-10ed7072="" width="100" height="100" x="000" y="110" id="i_128_mat4" xmlns="http://www.w3.org/2000/svg" version="1.1" xmlns:xlink="http://www.w3.org/1999/xlink" xmlns:svgjs="http://svgjs.com/svgjs"><polygon id="SvgjsPolygon43657" points="37.5,0 62.5,0 62.5,12.5 37.5,12.5" stroke="#000000" stroke-width="1"></polygon><polygon id="SvgjsPolygon43658" points="0,37.5 0,62.5 12.5,62.5 12.5,37.5" stroke="#000000" stroke-width="1"></polygon><polygon id="SvgjsPolygon43659" points="37.5,87.5 62.5,87.5 62.5,100 37.5,100" stroke="#000000" stroke-width="1"></polygon><polygon id="SvgjsPolygon43660" points="50,12.5 37.5,25 62.5,25" stroke="#000000" stroke-width="1"></polygon><polygon id="SvgjsPolygon43661" points="12.5,50 25,37.5 25,62.5" stroke="#000000" stroke-width="1"></polygon><defs id="SvgjsDefs43656"></defs><polygon id="SvgjsPolygon43662" points="50,87.5 37.5,75 62.5,75" stroke="#000000" stroke-width="1"></polygon></svg><svg data-v-10ed7072="" width="100" height="100" x="110" y="110" id="i_128_mat5" xmlns="http://www.w3.org/2000/svg" version="1.1" xmlns:xlink="http://www.w3.org/1999/xlink" xmlns:svgjs="http://svgjs.com/svgjs"><polygon id="SvgjsPolygon43664" points="37.5,0 62.5,0 62.5,12.5 37.5,12.5" stroke="#000000" stroke-width="1"></polygon><defs id="SvgjsDefs43663"></defs><polygon id="SvgjsPolygon43665" points="87.5,50 75,37.5 75,62.5" stroke="#000000" stroke-width="1"></polygon></svg><svg data-v-10ed7072="" width="100" height="100" x="220" y="110" id="i_128_mat6" xmlns="http://www.w3.org/2000/svg" version="1.1" xmlns:xlink="http://www.w3.org/1999/xlink" xmlns:svgjs="http://svgjs.com/svgjs"><polygon id="SvgjsPolygon43667" points="0,37.5 0,62.5 12.5,62.5 12.5,37.5" stroke="#000000" stroke-width="1"></polygon><defs id="SvgjsDefs43666"></defs><polygon id="SvgjsPolygon43668" points="37.5,87.5 62.5,87.5 62.5,100 37.5,100" stroke="#000000" stroke-width="1"></polygon></svg><svg data-v-10ed7072="" width="100" height="100" x="000" y="220" id="i_128_mat7" xmlns="http://www.w3.org/2000/svg" version="1.1" xmlns:xlink="http://www.w3.org/1999/xlink" xmlns:svgjs="http://svgjs.com/svgjs"><polygon id="SvgjsPolygon43670" points="37.5,87.5 62.5,87.5 62.5,100 37.5,100" stroke="#000000" stroke-width="1"></polygon><polygon id="SvgjsPolygon43671" points="87.5,37.5 87.5,62.5 100,62.5 100,37.5" stroke="#000000" stroke-width="1"></polygon><polygon id="SvgjsPolygon43672" points="50,12.5 37.5,25 62.5,25" stroke="#000000" stroke-width="1"></polygon><defs id="SvgjsDefs43669"></defs><polygon id="SvgjsPolygon43673" points="12.5,50 25,37.5 25,62.5" stroke="#000000" stroke-width="1"></polygon></svg><svg data-v-10ed7072="" width="100" height="100" x="110" y="220" id="i_128_mat8" xmlns="http://www.w3.org/2000/svg" version="1.1" xmlns:xlink="http://www.w3.org/1999/xlink" xmlns:svgjs="http://svgjs.com/svgjs"><polygon id="SvgjsPolygon43675" points="37.5,87.5 62.5,87.5 62.5,100 37.5,100" stroke="#000000" stroke-width="1"></polygon><polygon id="SvgjsPolygon43676" points="87.5,37.5 87.5,62.5 100,62.5 100,37.5" stroke="#000000" stroke-width="1"></polygon><polygon id="SvgjsPolygon43677" points="50,12.5 37.5,25 62.5,25" stroke="#000000" stroke-width="1"></polygon><defs id="SvgjsDefs43674"></defs><polygon id="SvgjsPolygon43678" points="12.5,50 25,37.5 25,62.5" stroke="#000000" stroke-width="1"></polygon></svg></svg>