<?xml version="1.0" standalone="no"?>
<svg data-v-10ed7072="" viewBox="0 0 320 320" id="i_120" class="container" xmlns="http://www.w3.org/2000/svg"><rect data-v-10ed7072="" width="100" height="100" x="000" y="000" fill="#ffffff" stroke="#000000" stroke-width="1"></rect><rect data-v-10ed7072="" width="100" height="100" x="110" y="000" fill="#ffffff" stroke="#000000" stroke-width="1"></rect><rect data-v-10ed7072="" width="100" height="100" x="220" y="000" fill="#ffffff" stroke="#000000" stroke-width="1"></rect><rect data-v-10ed7072="" width="100" height="100" x="000" y="110" fill="#ffffff" stroke="#000000" stroke-width="1"></rect><rect data-v-10ed7072="" width="100" height="100" x="110" y="110" fill="#ffffff" stroke="#000000" stroke-width="1"></rect><rect data-v-10ed7072="" width="100" height="100" x="220" y="110" fill="#ffffff" stroke="#000000" stroke-width="1"></rect><rect data-v-10ed7072="" width="100" height="100" x="000" y="220" fill="#ffffff" stroke="#000000" stroke-width="1"></rect><rect data-v-10ed7072="" width="100" height="100" x="110" y="220" fill="#ffffff" stroke="#000000" stroke-width="1"></rect><rect data-v-10ed7072="" width="100" height="100" x="220" y="220" fill="#ffffff" stroke="#000000" stroke-width="1"></rect><svg data-v-10ed7072="" width="100" height="100" x="000" y="000" id="i_120_mat1" xmlns="http://www.w3.org/2000/svg" version="1.1" xmlns:xlink="http://www.w3.org/1999/xlink" xmlns:svgjs="http://svgjs.com/svgjs"><polygon id="SvgjsPolygon36029" points="0,0 25,0 0,25" fill="#000000" stroke="#000000" stroke-width="1"></polygon><polygon id="SvgjsPolygon36030" points="100,75 100,100 75,100" fill="#000000" stroke="#000000" stroke-width="1"></polygon><polygon id="SvgjsPolygon36031" points="12.5,50 50,12.5" stroke="#000000" stroke-width="1"></polygon><defs id="SvgjsDefs36028"></defs><polygon id="SvgjsPolygon36032" points="12.5,50 50,87.5" stroke="#000000" stroke-width="1"></polygon></svg><svg data-v-10ed7072="" width="100" height="100" x="110" y="000" id="i_120_mat2" xmlns="http://www.w3.org/2000/svg" version="1.1" xmlns:xlink="http://www.w3.org/1999/xlink" xmlns:svgjs="http://svgjs.com/svgjs"><polygon id="SvgjsPolygon36034" points="50,87.5 87.5,50" stroke="#000000" stroke-width="1"></polygon><polygon id="SvgjsPolygon36035" points="37.5,0 62.5,0 62.5,12.5 37.5,12.5" stroke="#000000" stroke-width="1"></polygon><defs id="SvgjsDefs36033"></defs><polygon id="SvgjsPolygon36036" points="37.5,87.5 62.5,87.5 62.5,100 37.5,100" stroke="#000000" stroke-width="1"></polygon></svg><svg data-v-10ed7072="" width="100" height="100" x="220" y="000" id="i_120_mat3" xmlns="http://www.w3.org/2000/svg" version="1.1" xmlns:xlink="http://www.w3.org/1999/xlink" xmlns:svgjs="http://svgjs.com/svgjs"><polygon id="SvgjsPolygon36038" points="12.5,50 50,12.5" stroke="#000000" stroke-width="1"></polygon><polygon id="SvgjsPolygon36039" points="12.5,50 50,87.5" stroke="#000000" stroke-width="1"></polygon><polygon id="SvgjsPolygon36040" points="50,87.5 87.5,50" stroke="#000000" stroke-width="1"></polygon><defs id="SvgjsDefs36037"></defs><rect id="SvgjsRect36041" width="20" height="20" x="40" y="40" fill="none" stroke="#000000" stroke-width="1"></rect></svg><svg data-v-10ed7072="" width="100" height="100" x="000" y="110" id="i_120_mat4" xmlns="http://www.w3.org/2000/svg" version="1.1" xmlns:xlink="http://www.w3.org/1999/xlink" xmlns:svgjs="http://svgjs.com/svgjs"><polygon id="SvgjsPolygon36043" points="12.5,50 50,87.5" stroke="#000000" stroke-width="1"></polygon><polygon id="SvgjsPolygon36044" points="50,12.5 87.5,50" stroke="#000000" stroke-width="1"></polygon><defs id="SvgjsDefs36042"></defs><rect id="SvgjsRect36045" width="20" height="20" x="40" y="40" fill="none" stroke="#000000" stroke-width="1"></rect></svg><svg data-v-10ed7072="" width="100" height="100" x="110" y="110" id="i_120_mat5" xmlns="http://www.w3.org/2000/svg" version="1.1" xmlns:xlink="http://www.w3.org/1999/xlink" xmlns:svgjs="http://svgjs.com/svgjs"><polygon id="SvgjsPolygon36047" points="0,0 25,0 0,25" fill="#000000" stroke="#000000" stroke-width="1"></polygon><polygon id="SvgjsPolygon36048" points="100,75 100,100 75,100" fill="#000000" stroke="#000000" stroke-width="1"></polygon><defs id="SvgjsDefs36046"></defs><polygon id="SvgjsPolygon36049" points="12.5,50 50,12.5" stroke="#000000" stroke-width="1"></polygon></svg><svg data-v-10ed7072="" width="100" height="100" x="220" y="110" id="i_120_mat6" xmlns="http://www.w3.org/2000/svg" version="1.1" xmlns:xlink="http://www.w3.org/1999/xlink" xmlns:svgjs="http://svgjs.com/svgjs"><polygon id="SvgjsPolygon36051" points="12.5,50 50,12.5" stroke="#000000" stroke-width="1"></polygon><polygon id="SvgjsPolygon36052" points="12.5,50 50,87.5" stroke="#000000" stroke-width="1"></polygon><polygon id="SvgjsPolygon36053" points="50,12.5 87.5,50" stroke="#000000" stroke-width="1"></polygon><polygon id="SvgjsPolygon36054" points="37.5,0 62.5,0 62.5,12.5 37.5,12.5" stroke="#000000" stroke-width="1"></polygon><defs id="SvgjsDefs36050"></defs><polygon id="SvgjsPolygon36055" points="37.5,87.5 62.5,87.5 62.5,100 37.5,100" stroke="#000000" stroke-width="1"></polygon></svg><svg data-v-10ed7072="" width="100" height="100" x="000" y="220" id="i_120_mat7" xmlns="http://www.w3.org/2000/svg" version="1.1" xmlns:xlink="http://www.w3.org/1999/xlink" xmlns:svgjs="http://svgjs.com/svgjs"><polygon id="SvgjsPolygon36057" points="50,87.5 87.5,50" stroke="#000000" stroke-width="1"></polygon><polygon id="SvgjsPolygon36058" points="50,12.5 87.5,50" stroke="#000000" stroke-width="1"></polygon><polygon id="SvgjsPolygon36059" points="37.5,0 62.5,0 62.5,12.5 37.5,12.5" stroke="#000000" stroke-width="1"></polygon><defs id="SvgjsDefs36056"></defs><polygon id="SvgjsPolygon36060" points="37.5,87.5 62.5,87.5 62.5,100 37.5,100" stroke="#000000" stroke-width="1"></polygon></svg><svg data-v-10ed7072="" width="100" height="100" x="110" y="220" id="i_120_mat8" xmlns="http://www.w3.org/2000/svg" version="1.1" xmlns:xlink="http://www.w3.org/1999/xlink" xmlns:svgjs="http://svgjs.com/svgjs"><polygon id="SvgjsPolygon36062" points="12.5,50 50,12.5" stroke="#000000" stroke-width="1"></polygon><defs id="SvgjsDefs36061"></defs><rect id="SvgjsRect36063" width="20" height="20" x="40" y="40" fill="none" stroke="#000000" stroke-width="1"></rect></svg></svg>