<?xml version="1.0" standalone="no"?>
<svg data-v-10ed7072="" viewBox="0 0 320 320" id="i_215" class="container" xmlns="http://www.w3.org/2000/svg"><rect data-v-10ed7072="" width="100" height="100" x="000" y="000" fill="#ffffff" stroke="#000000" stroke-width="1"></rect><rect data-v-10ed7072="" width="100" height="100" x="110" y="000" fill="#ffffff" stroke="#000000" stroke-width="1"></rect><rect data-v-10ed7072="" width="100" height="100" x="220" y="000" fill="#ffffff" stroke="#000000" stroke-width="1"></rect><rect data-v-10ed7072="" width="100" height="100" x="000" y="110" fill="#ffffff" stroke="#000000" stroke-width="1"></rect><rect data-v-10ed7072="" width="100" height="100" x="110" y="110" fill="#ffffff" stroke="#000000" stroke-width="1"></rect><rect data-v-10ed7072="" width="100" height="100" x="220" y="110" fill="#ffffff" stroke="#000000" stroke-width="1"></rect><rect data-v-10ed7072="" width="100" height="100" x="000" y="220" fill="#ffffff" stroke="#000000" stroke-width="1"></rect><rect data-v-10ed7072="" width="100" height="100" x="110" y="220" fill="#ffffff" stroke="#000000" stroke-width="1"></rect><rect data-v-10ed7072="" width="100" height="100" x="220" y="220" fill="#ffffff" stroke="#000000" stroke-width="1"></rect><svg data-v-10ed7072="" width="100" height="100" x="000" y="000" id="i_215_mat1" xmlns="http://www.w3.org/2000/svg" version="1.1" xmlns:xlink="http://www.w3.org/1999/xlink" xmlns:svgjs="http://svgjs.com/svgjs"><polygon id="SvgjsPolygon63301" points="37.5,0 62.5,0 62.5,12.5 37.5,12.5" stroke="#000000" stroke-width="1"></polygon><rect id="SvgjsRect63302" width="20" height="20" x="40" y="40" fill="none" stroke="#000000" stroke-width="1"></rect><polygon id="SvgjsPolygon63303" points="50,12.5 37.5,25 62.5,25" stroke="#000000" stroke-width="1"></polygon><polygon id="SvgjsPolygon63304" points="12.5,50 25,37.5 25,62.5" stroke="#000000" stroke-width="1"></polygon><defs id="SvgjsDefs63300"></defs><polygon id="SvgjsPolygon63305" points="50,87.5 37.5,75 62.5,75" stroke="#000000" stroke-width="1"></polygon></svg><svg data-v-10ed7072="" width="100" height="100" x="110" y="000" id="i_215_mat2" xmlns="http://www.w3.org/2000/svg" version="1.1" xmlns:xlink="http://www.w3.org/1999/xlink" xmlns:svgjs="http://svgjs.com/svgjs"><polygon id="SvgjsPolygon63307" points="0,37.5 0,62.5 12.5,62.5 12.5,37.5" stroke="#000000" stroke-width="1"></polygon><polygon id="SvgjsPolygon63308" points="37.5,87.5 62.5,87.5 62.5,100 37.5,100" stroke="#000000" stroke-width="1"></polygon><polygon id="SvgjsPolygon63309" points="87.5,37.5 87.5,62.5 100,62.5 100,37.5" stroke="#000000" stroke-width="1"></polygon><circle id="SvgjsCircle63310" r="10" cx="50" cy="50" fill="none" stroke="#000000" stroke-width="1"></circle><polygon id="SvgjsPolygon63311" points="50,12.5 37.5,25 62.5,25" stroke="#000000" stroke-width="1"></polygon><defs id="SvgjsDefs63306"></defs><polygon id="SvgjsPolygon63312" points="12.5,50 25,37.5 25,62.5" stroke="#000000" stroke-width="1"></polygon></svg><svg data-v-10ed7072="" width="100" height="100" x="220" y="000" id="i_215_mat3" xmlns="http://www.w3.org/2000/svg" version="1.1" xmlns:xlink="http://www.w3.org/1999/xlink" xmlns:svgjs="http://svgjs.com/svgjs"><polygon id="SvgjsPolygon63314" points="37.5,0 62.5,0 62.5,12.5 37.5,12.5" stroke="#000000" stroke-width="1"></polygon><polygon id="SvgjsPolygon63315" points="0,37.5 0,62.5 12.5,62.5 12.5,37.5" stroke="#000000" stroke-width="1"></polygon><polygon id="SvgjsPolygon63316" points="37.5,87.5 62.5,87.5 62.5,100 37.5,100" stroke="#000000" stroke-width="1"></polygon><polygon id="SvgjsPolygon63317" points="87.5,37.5 87.5,62.5 100,62.5 100,37.5" stroke="#000000" stroke-width="1"></polygon><circle id="SvgjsCircle63318" r="10" cx="50" cy="50"></circle><defs id="SvgjsDefs63313"></defs><polygon id="SvgjsPolygon63319" points="50,87.5 37.5,75 62.5,75" stroke="#000000" stroke-width="1"></polygon></svg><svg data-v-10ed7072="" width="100" height="100" x="000" y="110" id="i_215_mat4" xmlns="http://www.w3.org/2000/svg" version="1.1" xmlns:xlink="http://www.w3.org/1999/xlink" xmlns:svgjs="http://svgjs.com/svgjs"><polygon id="SvgjsPolygon63321" points="87.5,37.5 87.5,62.5 100,62.5 100,37.5" stroke="#000000" stroke-width="1"></polygon><circle id="SvgjsCircle63322" r="10" cx="50" cy="50"></circle><polygon id="SvgjsPolygon63323" points="50,12.5 37.5,25 62.5,25" stroke="#000000" stroke-width="1"></polygon><polygon id="SvgjsPolygon63324" points="12.5,50 25,37.5 25,62.5" stroke="#000000" stroke-width="1"></polygon><polygon id="SvgjsPolygon63325" points="50,87.5 37.5,75 62.5,75" stroke="#000000" stroke-width="1"></polygon><defs id="SvgjsDefs63320"></defs><polygon id="SvgjsPolygon63326" points="87.5,50 75,37.5 75,62.5" stroke="#000000" stroke-width="1"></polygon></svg><svg data-v-10ed7072="" width="100" height="100" x="110" y="110" id="i_215_mat5" xmlns="http://www.w3.org/2000/svg" version="1.1" xmlns:xlink="http://www.w3.org/1999/xlink" xmlns:svgjs="http://svgjs.com/svgjs"><polygon id="SvgjsPolygon63328" points="37.5,0 62.5,0 62.5,12.5 37.5,12.5" stroke="#000000" stroke-width="1"></polygon><polygon id="SvgjsPolygon63329" points="0,37.5 0,62.5 12.5,62.5 12.5,37.5" stroke="#000000" stroke-width="1"></polygon><rect id="SvgjsRect63330" width="20" height="20" x="40" y="40" fill="none" stroke="#000000" stroke-width="1"></rect><polygon id="SvgjsPolygon63331" points="50,12.5 37.5,25 62.5,25" stroke="#000000" stroke-width="1"></polygon><defs id="SvgjsDefs63327"></defs><polygon id="SvgjsPolygon63332" points="50,87.5 37.5,75 62.5,75" stroke="#000000" stroke-width="1"></polygon></svg><svg data-v-10ed7072="" width="100" height="100" x="220" y="110" id="i_215_mat6" xmlns="http://www.w3.org/2000/svg" version="1.1" xmlns:xlink="http://www.w3.org/1999/xlink" xmlns:svgjs="http://svgjs.com/svgjs"><polygon id="SvgjsPolygon63334" points="37.5,0 62.5,0 62.5,12.5 37.5,12.5" stroke="#000000" stroke-width="1"></polygon><polygon id="SvgjsPolygon63335" points="0,37.5 0,62.5 12.5,62.5 12.5,37.5" stroke="#000000" stroke-width="1"></polygon><polygon id="SvgjsPolygon63336" points="87.5,37.5 87.5,62.5 100,62.5 100,37.5" stroke="#000000" stroke-width="1"></polygon><circle id="SvgjsCircle63337" r="10" cx="50" cy="50" fill="none" stroke="#000000" stroke-width="1"></circle><polygon id="SvgjsPolygon63338" points="12.5,50 25,37.5 25,62.5" stroke="#000000" stroke-width="1"></polygon><defs id="SvgjsDefs63333"></defs><polygon id="SvgjsPolygon63339" points="87.5,50 75,37.5 75,62.5" stroke="#000000" stroke-width="1"></polygon></svg><svg data-v-10ed7072="" width="100" height="100" x="000" y="220" id="i_215_mat7" xmlns="http://www.w3.org/2000/svg" version="1.1" xmlns:xlink="http://www.w3.org/1999/xlink" xmlns:svgjs="http://svgjs.com/svgjs"><polygon id="SvgjsPolygon63341" points="37.5,87.5 62.5,87.5 62.5,100 37.5,100" stroke="#000000" stroke-width="1"></polygon><polygon id="SvgjsPolygon63342" points="87.5,37.5 87.5,62.5 100,62.5 100,37.5" stroke="#000000" stroke-width="1"></polygon><circle id="SvgjsCircle63343" r="10" cx="50" cy="50" fill="none" stroke="#000000" stroke-width="1"></circle><polygon id="SvgjsPolygon63344" points="12.5,50 25,37.5 25,62.5" stroke="#000000" stroke-width="1"></polygon><defs id="SvgjsDefs63340"></defs><polygon id="SvgjsPolygon63345" points="50,87.5 37.5,75 62.5,75" stroke="#000000" stroke-width="1"></polygon></svg><svg data-v-10ed7072="" width="100" height="100" x="110" y="220" id="i_215_mat8" xmlns="http://www.w3.org/2000/svg" version="1.1" xmlns:xlink="http://www.w3.org/1999/xlink" xmlns:svgjs="http://svgjs.com/svgjs"><polygon id="SvgjsPolygon63347" points="37.5,0 62.5,0 62.5,12.5 37.5,12.5" stroke="#000000" stroke-width="1"></polygon><circle id="SvgjsCircle63348" r="10" cx="50" cy="50"></circle><defs id="SvgjsDefs63346"></defs><polygon id="SvgjsPolygon63349" points="12.5,50 25,37.5 25,62.5" stroke="#000000" stroke-width="1"></polygon></svg></svg>