<?xml version="1.0" standalone="no"?>
<svg data-v-10ed7072="" viewBox="0 0 320 320" id="i_125" class="container" xmlns="http://www.w3.org/2000/svg"><rect data-v-10ed7072="" width="100" height="100" x="000" y="000" fill="#ffffff" stroke="#000000" stroke-width="1"></rect><rect data-v-10ed7072="" width="100" height="100" x="110" y="000" fill="#ffffff" stroke="#000000" stroke-width="1"></rect><rect data-v-10ed7072="" width="100" height="100" x="220" y="000" fill="#ffffff" stroke="#000000" stroke-width="1"></rect><rect data-v-10ed7072="" width="100" height="100" x="000" y="110" fill="#ffffff" stroke="#000000" stroke-width="1"></rect><rect data-v-10ed7072="" width="100" height="100" x="110" y="110" fill="#ffffff" stroke="#000000" stroke-width="1"></rect><rect data-v-10ed7072="" width="100" height="100" x="220" y="110" fill="#ffffff" stroke="#000000" stroke-width="1"></rect><rect data-v-10ed7072="" width="100" height="100" x="000" y="220" fill="#ffffff" stroke="#000000" stroke-width="1"></rect><rect data-v-10ed7072="" width="100" height="100" x="110" y="220" fill="#ffffff" stroke="#000000" stroke-width="1"></rect><rect data-v-10ed7072="" width="100" height="100" x="220" y="220" fill="#ffffff" stroke="#000000" stroke-width="1"></rect><svg data-v-10ed7072="" width="100" height="100" x="000" y="000" id="i_125_mat1" xmlns="http://www.w3.org/2000/svg" version="1.1" xmlns:xlink="http://www.w3.org/1999/xlink" xmlns:svgjs="http://svgjs.com/svgjs"><polygon id="SvgjsPolygon35187" points="0,0 25,0 0,25" fill="#000000" stroke="#000000" stroke-width="1"></polygon><polygon id="SvgjsPolygon35188" points="25,100 0,100 0,75" fill="#000000" stroke="#000000" stroke-width="1"></polygon><polygon id="SvgjsPolygon35189" points="12.5,50 50,12.5" stroke="#000000" stroke-width="1"></polygon><defs id="SvgjsDefs35186"></defs><polygon id="SvgjsPolygon35190" points="12.5,50 50,87.5" stroke="#000000" stroke-width="1"></polygon></svg><svg data-v-10ed7072="" width="100" height="100" x="110" y="000" id="i_125_mat2" xmlns="http://www.w3.org/2000/svg" version="1.1" xmlns:xlink="http://www.w3.org/1999/xlink" xmlns:svgjs="http://svgjs.com/svgjs"><polygon id="SvgjsPolygon35192" points="25,100 0,100 0,75" fill="#000000" stroke="#000000" stroke-width="1"></polygon><polygon id="SvgjsPolygon35193" points="100,75 100,100 75,100" fill="#000000" stroke="#000000" stroke-width="1"></polygon><polygon id="SvgjsPolygon35194" points="50,87.5 87.5,50" stroke="#000000" stroke-width="1"></polygon><defs id="SvgjsDefs35191"></defs><polygon id="SvgjsPolygon35195" points="50,12.5 87.5,50" stroke="#000000" stroke-width="1"></polygon></svg><svg data-v-10ed7072="" width="100" height="100" x="220" y="000" id="i_125_mat3" xmlns="http://www.w3.org/2000/svg" version="1.1" xmlns:xlink="http://www.w3.org/1999/xlink" xmlns:svgjs="http://svgjs.com/svgjs"><polygon id="SvgjsPolygon35197" points="100,75 100,100 75,100" fill="#000000" stroke="#000000" stroke-width="1"></polygon><polygon id="SvgjsPolygon35198" points="75,0 100,0 100,25" fill="#000000" stroke="#000000" stroke-width="1"></polygon><polygon id="SvgjsPolygon35199" points="12.5,50 50,12.5" stroke="#000000" stroke-width="1"></polygon><polygon id="SvgjsPolygon35200" points="12.5,50 50,87.5" stroke="#000000" stroke-width="1"></polygon><polygon id="SvgjsPolygon35201" points="50,87.5 87.5,50" stroke="#000000" stroke-width="1"></polygon><defs id="SvgjsDefs35196"></defs><polygon id="SvgjsPolygon35202" points="50,12.5 87.5,50" stroke="#000000" stroke-width="1"></polygon></svg><svg data-v-10ed7072="" width="100" height="100" x="000" y="110" id="i_125_mat4" xmlns="http://www.w3.org/2000/svg" version="1.1" xmlns:xlink="http://www.w3.org/1999/xlink" xmlns:svgjs="http://svgjs.com/svgjs"><polygon id="SvgjsPolygon35204" points="0,0 25,0 0,25" fill="#000000" stroke="#000000" stroke-width="1"></polygon><polygon id="SvgjsPolygon35205" points="75,0 100,0 100,25" fill="#000000" stroke="#000000" stroke-width="1"></polygon><defs id="SvgjsDefs35203"></defs><polygon id="SvgjsPolygon35206" points="50,87.5 87.5,50" stroke="#000000" stroke-width="1"></polygon></svg><svg data-v-10ed7072="" width="100" height="100" x="110" y="110" id="i_125_mat5" xmlns="http://www.w3.org/2000/svg" version="1.1" xmlns:xlink="http://www.w3.org/1999/xlink" xmlns:svgjs="http://svgjs.com/svgjs"><polygon id="SvgjsPolygon35208" points="0,0 25,0 0,25" fill="#000000" stroke="#000000" stroke-width="1"></polygon><polygon id="SvgjsPolygon35209" points="25,100 0,100 0,75" fill="#000000" stroke="#000000" stroke-width="1"></polygon><defs id="SvgjsDefs35207"></defs><polygon id="SvgjsPolygon35210" points="12.5,50 50,12.5" stroke="#000000" stroke-width="1"></polygon></svg><svg data-v-10ed7072="" width="100" height="100" x="220" y="110" id="i_125_mat6" xmlns="http://www.w3.org/2000/svg" version="1.1" xmlns:xlink="http://www.w3.org/1999/xlink" xmlns:svgjs="http://svgjs.com/svgjs"><polygon id="SvgjsPolygon35212" points="25,100 0,100 0,75" fill="#000000" stroke="#000000" stroke-width="1"></polygon><polygon id="SvgjsPolygon35213" points="100,75 100,100 75,100" fill="#000000" stroke="#000000" stroke-width="1"></polygon><polygon id="SvgjsPolygon35214" points="12.5,50 50,12.5" stroke="#000000" stroke-width="1"></polygon><defs id="SvgjsDefs35211"></defs><polygon id="SvgjsPolygon35215" points="50,87.5 87.5,50" stroke="#000000" stroke-width="1"></polygon></svg><svg data-v-10ed7072="" width="100" height="100" x="000" y="220" id="i_125_mat7" xmlns="http://www.w3.org/2000/svg" version="1.1" xmlns:xlink="http://www.w3.org/1999/xlink" xmlns:svgjs="http://svgjs.com/svgjs"><polygon id="SvgjsPolygon35217" points="100,75 100,100 75,100" fill="#000000" stroke="#000000" stroke-width="1"></polygon><polygon id="SvgjsPolygon35218" points="75,0 100,0 100,25" fill="#000000" stroke="#000000" stroke-width="1"></polygon><polygon id="SvgjsPolygon35219" points="12.5,50 50,87.5" stroke="#000000" stroke-width="1"></polygon><defs id="SvgjsDefs35216"></defs><polygon id="SvgjsPolygon35220" points="50,87.5 87.5,50" stroke="#000000" stroke-width="1"></polygon></svg><svg data-v-10ed7072="" width="100" height="100" x="110" y="220" id="i_125_mat8" xmlns="http://www.w3.org/2000/svg" version="1.1" xmlns:xlink="http://www.w3.org/1999/xlink" xmlns:svgjs="http://svgjs.com/svgjs"><polygon id="SvgjsPolygon35222" points="0,0 25,0 0,25" fill="#000000" stroke="#000000" stroke-width="1"></polygon><polygon id="SvgjsPolygon35223" points="75,0 100,0 100,25" fill="#000000" stroke="#000000" stroke-width="1"></polygon><defs id="SvgjsDefs35221"></defs><polygon id="SvgjsPolygon35224" points="50,12.5 87.5,50" stroke="#000000" stroke-width="1"></polygon></svg></svg>