<?xml version="1.0" standalone="no"?>
<svg data-v-10ed7072="" viewBox="0 0 320 320" id="i_244" class="container" xmlns="http://www.w3.org/2000/svg"><rect data-v-10ed7072="" width="100" height="100" x="000" y="000" fill="#ffffff" stroke="#000000" stroke-width="1"></rect><rect data-v-10ed7072="" width="100" height="100" x="110" y="000" fill="#ffffff" stroke="#000000" stroke-width="1"></rect><rect data-v-10ed7072="" width="100" height="100" x="220" y="000" fill="#ffffff" stroke="#000000" stroke-width="1"></rect><rect data-v-10ed7072="" width="100" height="100" x="000" y="110" fill="#ffffff" stroke="#000000" stroke-width="1"></rect><rect data-v-10ed7072="" width="100" height="100" x="110" y="110" fill="#ffffff" stroke="#000000" stroke-width="1"></rect><rect data-v-10ed7072="" width="100" height="100" x="220" y="110" fill="#ffffff" stroke="#000000" stroke-width="1"></rect><rect data-v-10ed7072="" width="100" height="100" x="000" y="220" fill="#ffffff" stroke="#000000" stroke-width="1"></rect><rect data-v-10ed7072="" width="100" height="100" x="110" y="220" fill="#ffffff" stroke="#000000" stroke-width="1"></rect><rect data-v-10ed7072="" width="100" height="100" x="220" y="220" fill="#ffffff" stroke="#000000" stroke-width="1"></rect><svg data-v-10ed7072="" width="100" height="100" x="000" y="000" id="i_244_mat1" xmlns="http://www.w3.org/2000/svg" version="1.1" xmlns:xlink="http://www.w3.org/1999/xlink" xmlns:svgjs="http://svgjs.com/svgjs"><polygon id="SvgjsPolygon61319" points="12.5,50 50,12.5" stroke="#000000" stroke-width="1"></polygon><polygon id="SvgjsPolygon61320" points="50,87.5 87.5,50" stroke="#000000" stroke-width="1"></polygon><polygon id="SvgjsPolygon61321" points="37.5,0 62.5,0 62.5,12.5 37.5,12.5" stroke="#000000" stroke-width="1"></polygon><polygon id="SvgjsPolygon61322" points="0,37.5 0,62.5 12.5,62.5 12.5,37.5" stroke="#000000" stroke-width="1"></polygon><polygon id="SvgjsPolygon61323" points="50,12.5 37.5,25 62.5,25" stroke="#000000" stroke-width="1"></polygon><defs id="SvgjsDefs61318"></defs><polygon id="SvgjsPolygon61324" points="12.5,50 25,37.5 25,62.5" stroke="#000000" stroke-width="1"></polygon></svg><svg data-v-10ed7072="" width="100" height="100" x="110" y="000" id="i_244_mat2" xmlns="http://www.w3.org/2000/svg" version="1.1" xmlns:xlink="http://www.w3.org/1999/xlink" xmlns:svgjs="http://svgjs.com/svgjs"><polygon id="SvgjsPolygon61326" points="12.5,50 50,87.5" stroke="#000000" stroke-width="1"></polygon><polygon id="SvgjsPolygon61327" points="37.5,0 62.5,0 62.5,12.5 37.5,12.5" stroke="#000000" stroke-width="1"></polygon><polygon id="SvgjsPolygon61328" points="87.5,37.5 87.5,62.5 100,62.5 100,37.5" stroke="#000000" stroke-width="1"></polygon><defs id="SvgjsDefs61325"></defs><polygon id="SvgjsPolygon61329" points="50,12.5 37.5,25 62.5,25" stroke="#000000" stroke-width="1"></polygon></svg><svg data-v-10ed7072="" width="100" height="100" x="220" y="000" id="i_244_mat3" xmlns="http://www.w3.org/2000/svg" version="1.1" xmlns:xlink="http://www.w3.org/1999/xlink" xmlns:svgjs="http://svgjs.com/svgjs"><polygon id="SvgjsPolygon61331" points="12.5,50 50,12.5" stroke="#000000" stroke-width="1"></polygon><polygon id="SvgjsPolygon61332" points="12.5,50 50,87.5" stroke="#000000" stroke-width="1"></polygon><polygon id="SvgjsPolygon61333" points="50,87.5 87.5,50" stroke="#000000" stroke-width="1"></polygon><polygon id="SvgjsPolygon61334" points="37.5,87.5 62.5,87.5 62.5,100 37.5,100" stroke="#000000" stroke-width="1"></polygon><polygon id="SvgjsPolygon61335" points="87.5,37.5 87.5,62.5 100,62.5 100,37.5" stroke="#000000" stroke-width="1"></polygon><defs id="SvgjsDefs61330"></defs><polygon id="SvgjsPolygon61336" points="12.5,50 25,37.5 25,62.5" stroke="#000000" stroke-width="1"></polygon></svg><svg data-v-10ed7072="" width="100" height="100" x="000" y="110" id="i_244_mat4" xmlns="http://www.w3.org/2000/svg" version="1.1" xmlns:xlink="http://www.w3.org/1999/xlink" xmlns:svgjs="http://svgjs.com/svgjs"><polygon id="SvgjsPolygon61338" points="12.5,50 50,87.5" stroke="#000000" stroke-width="1"></polygon><polygon id="SvgjsPolygon61339" points="50,12.5 87.5,50" stroke="#000000" stroke-width="1"></polygon><polygon id="SvgjsPolygon61340" points="37.5,87.5 62.5,87.5 62.5,100 37.5,100" stroke="#000000" stroke-width="1"></polygon><polygon id="SvgjsPolygon61341" points="87.5,37.5 87.5,62.5 100,62.5 100,37.5" stroke="#000000" stroke-width="1"></polygon><polygon id="SvgjsPolygon61342" points="50,12.5 37.5,25 62.5,25" stroke="#000000" stroke-width="1"></polygon><polygon id="SvgjsPolygon61343" points="12.5,50 25,37.5 25,62.5" stroke="#000000" stroke-width="1"></polygon><polygon id="SvgjsPolygon61344" points="50,87.5 37.5,75 62.5,75" stroke="#000000" stroke-width="1"></polygon><defs id="SvgjsDefs61337"></defs><polygon id="SvgjsPolygon61345" points="87.5,50 75,37.5 75,62.5" stroke="#000000" stroke-width="1"></polygon></svg><svg data-v-10ed7072="" width="100" height="100" x="110" y="110" id="i_244_mat5" xmlns="http://www.w3.org/2000/svg" version="1.1" xmlns:xlink="http://www.w3.org/1999/xlink" xmlns:svgjs="http://svgjs.com/svgjs"><polygon id="SvgjsPolygon61347" points="12.5,50 50,87.5" stroke="#000000" stroke-width="1"></polygon><polygon id="SvgjsPolygon61348" points="50,87.5 87.5,50" stroke="#000000" stroke-width="1"></polygon><polygon id="SvgjsPolygon61349" points="0,37.5 0,62.5 12.5,62.5 12.5,37.5" stroke="#000000" stroke-width="1"></polygon><polygon id="SvgjsPolygon61350" points="37.5,87.5 62.5,87.5 62.5,100 37.5,100" stroke="#000000" stroke-width="1"></polygon><polygon id="SvgjsPolygon61351" points="12.5,50 25,37.5 25,62.5" stroke="#000000" stroke-width="1"></polygon><defs id="SvgjsDefs61346"></defs><polygon id="SvgjsPolygon61352" points="50,87.5 37.5,75 62.5,75" stroke="#000000" stroke-width="1"></polygon></svg><svg data-v-10ed7072="" width="100" height="100" x="220" y="110" id="i_244_mat6" xmlns="http://www.w3.org/2000/svg" version="1.1" xmlns:xlink="http://www.w3.org/1999/xlink" xmlns:svgjs="http://svgjs.com/svgjs"><polygon id="SvgjsPolygon61354" points="12.5,50 50,87.5" stroke="#000000" stroke-width="1"></polygon><polygon id="SvgjsPolygon61355" points="50,87.5 87.5,50" stroke="#000000" stroke-width="1"></polygon><polygon id="SvgjsPolygon61356" points="50,12.5 87.5,50" stroke="#000000" stroke-width="1"></polygon><polygon id="SvgjsPolygon61357" points="37.5,0 62.5,0 62.5,12.5 37.5,12.5" stroke="#000000" stroke-width="1"></polygon><polygon id="SvgjsPolygon61358" points="0,37.5 0,62.5 12.5,62.5 12.5,37.5" stroke="#000000" stroke-width="1"></polygon><polygon id="SvgjsPolygon61359" points="50,12.5 37.5,25 62.5,25" stroke="#000000" stroke-width="1"></polygon><defs id="SvgjsDefs61353"></defs><polygon id="SvgjsPolygon61360" points="87.5,50 75,37.5 75,62.5" stroke="#000000" stroke-width="1"></polygon></svg><svg data-v-10ed7072="" width="100" height="100" x="000" y="220" id="i_244_mat7" xmlns="http://www.w3.org/2000/svg" version="1.1" xmlns:xlink="http://www.w3.org/1999/xlink" xmlns:svgjs="http://svgjs.com/svgjs"><polygon id="SvgjsPolygon61362" points="12.5,50 50,12.5" stroke="#000000" stroke-width="1"></polygon><polygon id="SvgjsPolygon61363" points="12.5,50 50,87.5" stroke="#000000" stroke-width="1"></polygon><polygon id="SvgjsPolygon61364" points="50,87.5 87.5,50" stroke="#000000" stroke-width="1"></polygon><polygon id="SvgjsPolygon61365" points="37.5,0 62.5,0 62.5,12.5 37.5,12.5" stroke="#000000" stroke-width="1"></polygon><polygon id="SvgjsPolygon61366" points="87.5,37.5 87.5,62.5 100,62.5 100,37.5" stroke="#000000" stroke-width="1"></polygon><polygon id="SvgjsPolygon61367" points="50,87.5 37.5,75 62.5,75" stroke="#000000" stroke-width="1"></polygon><defs id="SvgjsDefs61361"></defs><polygon id="SvgjsPolygon61368" points="87.5,50 75,37.5 75,62.5" stroke="#000000" stroke-width="1"></polygon></svg><svg data-v-10ed7072="" width="100" height="100" x="110" y="220" id="i_244_mat8" xmlns="http://www.w3.org/2000/svg" version="1.1" xmlns:xlink="http://www.w3.org/1999/xlink" xmlns:svgjs="http://svgjs.com/svgjs"><polygon id="SvgjsPolygon61370" points="12.5,50 50,12.5" stroke="#000000" stroke-width="1"></polygon><polygon id="SvgjsPolygon61371" points="12.5,50 50,87.5" stroke="#000000" stroke-width="1"></polygon><polygon id="SvgjsPolygon61372" points="50,87.5 87.5,50" stroke="#000000" stroke-width="1"></polygon><polygon id="SvgjsPolygon61373" points="37.5,87.5 62.5,87.5 62.5,100 37.5,100" stroke="#000000" stroke-width="1"></polygon><polygon id="SvgjsPolygon61374" points="87.5,37.5 87.5,62.5 100,62.5 100,37.5" stroke="#000000" stroke-width="1"></polygon><defs id="SvgjsDefs61369"></defs><polygon id="SvgjsPolygon61375" points="50,87.5 37.5,75 62.5,75" stroke="#000000" stroke-width="1"></polygon></svg></svg>